<svg width="63" height="66" viewBox="0 0 63 66" fill="none" xmlns="http://www.w3.org/2000/svg">
<path d="M63 35.3178C63 20.0831 53.2444 0 34.7795 0C16.3146 0 0 20.0831 0 35.3178C0 50.5524 23.6825 66 42.1474 66C60.6123 66 63 50.5524 63 35.3178Z" fill="#F05AA0"/>
<g clip-path="url(#clip0_38_1744)">
<path d="M31.9999 27.0001C31.4659 27.0001 30.9579 27.0922 30.4653 27.2235L32.2692 29.0274C34.3472 29.1688 35.9999 30.8867 35.9999 33C35.9999 35.2053 34.2052 37 31.9999 37C29.8866 37 28.1693 35.3474 28.0273 33.27L26.2227 31.4661C26.092 31.9587 26 32.4661 26 33C26 36.314 28.686 39 31.9999 39C35.3139 39 37.9998 36.314 37.9998 33C37.9998 29.686 35.3139 27.0001 31.9999 27.0001Z" fill="white"/>
<path d="M32.7077 32.2933L25.9024 25.4874C25.9431 25.3274 26.0004 25.1734 26.0004 25.0001V21.0001C26.0004 20.4694 25.7897 19.9609 25.4144 19.5862L19.4145 13.5863C19.0325 13.2036 18.5205 13.0002 17.9998 13.0002C17.7425 13.0002 17.4825 13.0502 17.2351 13.1523C16.4878 13.4623 16.0005 14.1916 16.0005 15.0002V17.0002H14.0005C13.1918 17.0002 12.4625 17.4875 12.1525 18.2349C11.8426 18.9822 12.0139 19.8422 12.5859 20.4142L18.5858 26.4141C18.9611 26.7894 19.4705 27.0001 20.0005 27.0001H24.0004C24.1731 27.0001 24.3278 26.9428 24.4878 26.9015L31.2937 33.7074C31.489 33.9027 31.7443 34 32.0003 34C32.2563 34 32.5123 33.9027 32.7077 33.7074C33.0983 33.3167 33.0983 32.6833 32.7077 32.2933ZM24.0004 25.0002H20.0005L14.0006 19.0002H18.0005V15.0003L24.0004 21.0002V25.0002Z" fill="white"/>
<path d="M31.9998 20.0001C30.5905 20.0001 29.2365 20.2314 27.9652 20.6461C27.9759 20.7648 27.9999 20.8801 27.9999 21.0001V22.7641C29.2412 22.2774 30.5878 22.0001 31.9998 22.0001C38.0651 22.0001 42.9997 26.9347 42.9997 32.9999C42.9997 39.0652 38.0651 43.9998 31.9998 43.9998C25.9346 43.9998 21 39.0652 21 32.9999C21 31.5879 21.2773 30.2413 21.7639 29H20C19.88 29 19.7647 28.976 19.646 28.9653C19.2313 30.2366 19 31.5906 19 32.9999C19 40.1798 24.8199 45.9998 31.9998 45.9998C39.1797 45.9998 44.9996 40.1798 44.9996 32.9999C44.9996 25.82 39.1797 20.0001 31.9998 20.0001Z" fill="white"/>
<path d="M32.0007 13.0003C28.9761 13.0003 26.1195 13.691 23.5495 14.8929L25.0542 16.3976C27.1934 15.4989 29.5394 15.0003 32.0007 15.0003C41.9259 15.0003 50.0005 23.0749 50.0005 33C50.0005 42.9252 41.9259 50.9998 32.0007 50.9998C22.0755 50.9998 14.0009 42.9252 14.0009 33C14.0009 30.5387 14.5002 28.1921 15.3983 26.0535L13.8936 24.5488C12.6917 27.1187 12.001 29.9754 12.001 33C12.001 44.0452 20.9555 52.9998 32.0007 52.9998C43.0459 52.9998 52.0004 44.0452 52.0004 33C52.0004 21.9549 43.0466 13.0003 32.0007 13.0003Z" fill="white"/>
</g>
<defs>
<clipPath id="clip0_38_1744">
<rect width="40" height="40" fill="white" transform="translate(12 13)"/>
</clipPath>
</defs>
</svg>
