<svg width="63" height="66" viewBox="0 0 63 66" fill="none" xmlns="http://www.w3.org/2000/svg">
<path d="M63 30.6822C63 45.9169 53.2444 66 34.7795 66C16.3146 66 0 45.9169 0 30.6822C0 15.4476 23.6825 0 42.1474 0C60.6123 0 63 15.4476 63 30.6822Z" fill="#5F6DFF"/>
<g clip-path="url(#clip0_38_1673)">
<path d="M42.6666 32.3334H38.6666V30.3334C38.6666 29.2287 37.7713 28.3334 36.6666 28.3334H33.3333V21.3334C33.3333 20.782 33.782 20.3334 34.3333 20.3334H45.6666C47.3206 20.3334 48.6666 18.9873 48.6666 17.3334V11H46.6666V17.3334C46.6666 17.8847 46.218 18.3334 45.6666 18.3334H34.3334C32.6794 18.3334 31.3334 19.6794 31.3334 21.3334V28.3334H27.3334C26.2287 28.3334 25.3334 29.2287 25.3334 30.3334V32.3334H21.3334C16.1866 32.3334 12 36.52 12 41.6666C12 46.8133 16.1866 51 21.3334 51C24.1167 51 26.714 49.772 28.478 47.6666H35.522C37.286 49.772 39.8834 51 42.6666 51C47.8134 51 52 46.8134 52 41.6666C52 36.5199 47.8134 32.3334 42.6666 32.3334ZM27.3334 30.3334H36.6667V32.3334H27.3334V30.3334ZM42.6666 49C40.0933 49 37.8333 47.672 36.5246 45.6666H27.4753C26.1666 47.672 23.9066 49 21.3333 49C17.2833 49 13.9999 45.7166 13.9999 41.6666C13.9999 37.6166 17.2833 34.3333 21.3333 34.3333H42.6666C46.7166 34.3333 50 37.6166 50 41.6666C50 45.7166 46.7166 49 42.6666 49Z" fill="white"/>
<path d="M46.3336 43.3333C47.2541 43.3333 48.0003 42.5871 48.0003 41.6666C48.0003 40.7462 47.2541 40 46.3336 40C45.4132 40 44.667 40.7462 44.667 41.6666C44.667 42.5871 45.4132 43.3333 46.3336 43.3333Z" fill="white"/>
<path d="M38.3327 43.3333C39.2531 43.3333 39.9993 42.5871 39.9993 41.6666C39.9993 40.7462 39.2531 40 38.3327 40C37.4122 40 36.666 40.7462 36.666 41.6666C36.666 42.5871 37.4122 43.3333 38.3327 43.3333Z" fill="white"/>
<path d="M42.3336 39.6667C43.2541 39.6667 44.0003 38.9205 44.0003 38C44.0003 37.0796 43.2541 36.3334 42.3336 36.3334C41.4132 36.3334 40.667 37.0796 40.667 38C40.667 38.9205 41.4132 39.6667 42.3336 39.6667Z" fill="white"/>
<path d="M42.3336 47C43.2541 47 44.0003 46.2538 44.0003 45.3333C44.0003 44.4129 43.2541 43.6667 42.3336 43.6667C41.4132 43.6667 40.667 44.4129 40.667 45.3333C40.667 46.2538 41.4132 47 42.3336 47Z" fill="white"/>
<path d="M21.9994 41V37.6666H19.9994V41H16.666V43H19.9994V46.3333H21.9994V43H25.3327V41H21.9994Z" fill="white"/>
</g>
<defs>
<clipPath id="clip0_38_1673">
<rect width="40" height="40" fill="white" transform="translate(12 11)"/>
</clipPath>
</defs>
</svg>
