<svg width="63" height="66" viewBox="0 0 63 66" fill="none" xmlns="http://www.w3.org/2000/svg">
<path d="M63 35.3178C63 20.0831 53.2444 0 34.7795 0C16.3146 0 0 20.0831 0 35.3178C0 50.5524 23.6825 66 42.1474 66C60.6123 66 63 50.5524 63 35.3178Z" fill="#A8DBB1"/>
<path d="M48 14H16C13.7947 14 12 15.7947 12 18V42C12 44.2053 13.7947 46 16 46H26V50H23C22.448 50 22 50.4473 22 51C22 51.5527 22.448 52 23 52H41C41.552 52 42 51.5527 42 51C42 50.4473 41.552 50 41 50H38V46H48C50.2053 46 52 44.2053 52 42V18C52 15.7947 50.2053 14 48 14ZM36 50H28V46H36V50ZM50 42C50 43.1047 49.1047 44 48 44H16C14.8953 44 14 43.1047 14 42V38H50V42ZM50 36H14V18C14 16.8953 14.8953 16 16 16H48C49.1047 16 50 16.8953 50 18V36Z" fill="white"/>
<path d="M32.3336 40H31.667C31.115 40 30.667 40.4474 30.667 41C30.667 41.5527 31.115 42 31.667 42H32.3336C32.8857 42 33.3336 41.5527 33.3336 41C33.3336 40.4474 32.8856 40 32.3336 40Z" fill="white"/>
</svg>
