<svg width="63" height="66" viewBox="0 0 63 66" fill="none" xmlns="http://www.w3.org/2000/svg">
<path d="M63 30.6822C63 45.9169 53.2444 66 34.7795 66C16.3146 66 0 45.9169 0 30.6822C0 15.4476 23.6825 0 42.1474 0C60.6123 0 63 15.4476 63 30.6822Z" fill="#FFAA81"/>
<path d="M35.667 14.3334H31.667C31.1143 14.3334 30.667 14.7807 30.667 15.3334C30.667 15.886 31.1143 16.3334 31.667 16.3334H35.667C36.2197 16.3334 36.667 15.886 36.667 15.3334C36.667 14.7807 36.2197 14.3334 35.667 14.3334Z" fill="white"/>
<path d="M40 11H24C21.7947 11 20 12.7947 20 15V47C20 49.2053 21.7947 51 24 51H40C42.2053 51 44 49.2053 44 47V15C44 12.7947 42.2053 11 40 11ZM42 47C42 48.1047 41.1047 49 40 49H24C22.8953 49 22 48.1047 22 47V15C22 13.8953 22.8953 13 24 13H40C41.1047 13 42 13.8953 42 15V47Z" fill="white"/>
<path d="M32 47.6666C33.1046 47.6666 34 46.7712 34 45.6666C34 44.5621 33.1046 43.6666 32 43.6666C30.8954 43.6666 30 44.5621 30 45.6666C30 46.7712 30.8954 47.6666 32 47.6666Z" fill="white"/>
<path d="M28.333 16.3334C28.8853 16.3334 29.333 15.8857 29.333 15.3334C29.333 14.7811 28.8853 14.3334 28.333 14.3334C27.7807 14.3334 27.333 14.7811 27.333 15.3334C27.333 15.8857 27.7807 16.3334 28.333 16.3334Z" fill="white"/>
</svg>
