<svg width="24" height="24" viewBox="0 0 24 24" fill="none" xmlns="http://www.w3.org/2000/svg">
<path d="M7.6813 11.062C7.09019 10.8918 6.49908 10.8054 5.92409 10.8054C5.03617 10.8054 4.29527 11.0083 3.72078 11.2568C4.27463 9.22922 5.60512 5.73062 8.25554 5.33663C8.50099 5.30013 8.70214 5.12264 8.76911 4.88373L9.34838 2.81181C9.39722 2.63659 9.36827 2.44904 9.26832 2.29698C9.16838 2.14492 9.00776 2.04347 8.82776 2.0188C8.63216 1.99211 8.43277 1.97852 8.23515 1.97852C5.05379 1.97852 1.90315 5.29912 0.573665 10.0537C-0.206757 12.8431 -0.435597 17.0368 1.48676 19.6764C2.56248 21.1534 4.13189 21.9422 6.15142 22.021C6.15973 22.0212 6.16778 22.0215 6.17609 22.0215C8.6679 22.0215 10.8775 20.3433 11.5497 17.9408C11.9512 16.5046 11.7697 14.9984 11.0381 13.6986C10.3143 12.4134 9.12231 11.4766 7.6813 11.062Z" fill="#DEE3E9"/>
<path d="M23.2791 13.6988C22.5553 12.4134 21.3633 11.4766 19.9223 11.062C19.3312 10.8918 18.7401 10.8054 18.1653 10.8054C17.2774 10.8054 16.5363 11.0083 15.9618 11.2568C16.5156 9.22922 17.8461 5.73062 20.4968 5.33663C20.7422 5.30013 20.9431 5.12264 21.0103 4.88373L21.5896 2.81181C21.6385 2.63659 21.6095 2.44904 21.5096 2.29698C21.4099 2.14492 21.2493 2.04347 21.069 2.0188C20.8736 1.99211 20.6743 1.97852 20.4764 1.97852C17.295 1.97852 14.1444 5.29912 12.8146 10.0537C12.0345 12.8431 11.8056 17.0368 13.7282 19.6769C14.8037 21.1537 16.3734 21.9427 18.3927 22.0212C18.401 22.0215 18.409 22.0217 18.4176 22.0217C20.9091 22.0217 23.119 20.3436 23.7912 17.9411C24.1922 16.5048 24.0104 14.9984 23.2791 13.6988Z" fill="#DEE3E9"/>
</svg>
