<svg width="60" height="60" viewBox="0 0 60 60" fill="none" xmlns="http://www.w3.org/2000/svg">
<rect width="60" height="60" fill="white"/>
<circle cx="30" cy="30" r="30" fill="#DD5954"/>
<g clip-path="url(#clip0_33_104)">
<path d="M38.3389 21.6611C35.9779 19.3002 32.8389 18 29.5 18C26.1611 18 23.0221 19.3002 20.6611 21.6611C18.3002 24.0221 17 27.1611 17 30.5C17 32.7024 17.5779 34.857 18.6741 36.752L17 43L23.248 41.3259C25.143 42.4221 27.2976 43 29.5 43C32.8389 43 35.9779 41.6998 38.3389 39.3389C40.6998 36.9779 42 33.8389 42 30.5C42 27.1611 40.6998 24.0221 38.3389 21.6611ZM30.2324 36.7256H28.7676V35.2607H30.2324V36.7256ZM32.2291 30.3778L30.2324 32.6108V33.7959H28.7676V32.0513L31.1374 29.4011C31.4985 28.9977 31.6973 28.4776 31.6973 27.9365C31.6973 26.725 30.7116 25.7393 29.5 25.7393C28.2884 25.7393 27.3027 26.725 27.3027 27.9365H25.8379C25.8379 25.9172 27.4807 24.2744 29.5 24.2744C31.5193 24.2744 33.1621 25.9172 33.1621 27.9365C33.1621 28.8386 32.8308 29.7056 32.2291 30.3778Z" fill="white"/>
</g>
<defs>
<clipPath id="clip0_33_104">
<rect width="25" height="25" fill="white" transform="translate(17 18)"/>
</clipPath>
</defs>
</svg>
