<svg width="1340" height="883" viewBox="0 0 1340 883" fill="none" xmlns="http://www.w3.org/2000/svg">
<path d="M9.33203 -17.5899L35.6754 28.3101H88.362L114.705 -17.5899L88.362 -63.4896H35.6754L9.33203 -17.5899Z" stroke="#DD5954" stroke-opacity="0.03" stroke-width="3.40695"/>
<path d="M167.393 -17.5899L193.736 28.3101H246.422L272.766 -17.5899L246.422 -63.4896H193.736L167.393 -17.5899Z" stroke="#DD5954" stroke-opacity="0.03" stroke-width="3.40695"/>
<path d="M325.455 -17.5899L351.798 28.3101H404.485L430.828 -17.5899L404.485 -63.4896H351.798L325.455 -17.5899Z" stroke="#DD5954" stroke-opacity="0.03" stroke-width="3.40695"/>
<path d="M483.515 -17.5899L509.858 28.3101H562.545L588.888 -17.5899L562.545 -63.4896H509.858L483.515 -17.5899Z" stroke="#DD5954" stroke-opacity="0.03" stroke-width="3.40695"/>
<path d="M641.576 -17.5899L667.919 28.3101H720.606L746.949 -17.5899L720.606 -63.4896H667.919L641.576 -17.5899Z" stroke="#DD5954" stroke-opacity="0.03" stroke-width="3.40695"/>
<path d="M799.639 -17.5899L825.982 28.3101H878.669L905.012 -17.5899L878.669 -63.4896H825.982L799.639 -17.5899Z" stroke="#DD5954" stroke-opacity="0.03" stroke-width="3.40695"/>
<path d="M957.7 -17.5899L984.043 28.3101H1036.73L1063.07 -17.5899L1036.73 -63.4896H984.043L957.7 -17.5899Z" stroke="#DD5954" stroke-opacity="0.03" stroke-width="3.40695"/>
<path d="M1115.76 -17.5899L1142.1 28.3101H1194.79L1221.13 -17.5899L1194.79 -63.4896H1142.1L1115.76 -17.5899Z" stroke="#DD5954" stroke-opacity="0.03" stroke-width="3.40695"/>
<path d="M1273.82 -17.5899L1300.17 28.3101H1352.85L1379.2 -17.5899L1352.85 -63.4896H1300.17L1273.82 -17.5899Z" stroke="#DD5954" stroke-opacity="0.03" stroke-width="3.40695"/>
<path d="M-69.6982 28.3101L-43.355 74.2101H9.33162L35.6748 28.3101L9.33162 -17.5895H-43.355L-69.6982 28.3101Z" stroke="#DD5954" stroke-opacity="0.03" stroke-width="3.40695"/>
<path d="M9.33203 74.2091L35.6754 120.109H88.362L114.705 74.2091L88.362 28.3094H35.6754L9.33203 74.2091Z" stroke="#DD5954" stroke-opacity="0.03" stroke-width="3.40695"/>
<path d="M88.3643 28.3101L114.708 74.2101H167.394L193.738 28.3101L167.394 -17.5895H114.708L88.3643 28.3101Z" stroke="#DD5954" stroke-opacity="0.03" stroke-width="3.40695"/>
<path d="M167.393 74.2091L193.736 120.109H246.422L272.766 74.2091L246.422 28.3094H193.736L167.393 74.2091Z" stroke="#DD5954" stroke-opacity="0.03" stroke-width="3.40695"/>
<path d="M246.426 28.3101L272.769 74.2101H325.456L351.799 28.3101L325.456 -17.5895H272.769L246.426 28.3101Z" stroke="#DD5954" stroke-opacity="0.03" stroke-width="3.40695"/>
<path d="M325.455 74.2091L351.798 120.109H404.485L430.828 74.2091L404.485 28.3094H351.798L325.455 74.2091Z" stroke="#DD5954" stroke-opacity="0.03" stroke-width="3.40695"/>
<path d="M404.486 28.3101L430.83 74.2101H483.516L509.859 28.3101L483.516 -17.5895H430.83L404.486 28.3101Z" stroke="#DD5954" stroke-opacity="0.03" stroke-width="3.40695"/>
<path d="M483.515 74.2091L509.858 120.109H562.545L588.888 74.2091L562.545 28.3094H509.858L483.515 74.2091Z" stroke="#DD5954" stroke-opacity="0.03" stroke-width="3.40695"/>
<path d="M562.548 28.3101L588.891 74.2101H641.578L667.921 28.3101L641.578 -17.5895H588.891L562.548 28.3101Z" stroke="#DD5954" stroke-opacity="0.03" stroke-width="3.40695"/>
<path d="M641.576 74.2091L667.919 120.109H720.606L746.949 74.2091L720.606 28.3094H667.919L641.576 74.2091Z" stroke="#DD5954" stroke-opacity="0.03" stroke-width="3.40695"/>
<path d="M720.609 28.3101L746.953 74.2101H799.639L825.983 28.3101L799.639 -17.5895H746.953L720.609 28.3101Z" stroke="#DD5954" stroke-opacity="0.03" stroke-width="3.40695"/>
<path d="M799.639 74.2091L825.982 120.109H878.669L905.012 74.2091L878.669 28.3094H825.982L799.639 74.2091Z" stroke="#DD5954" stroke-opacity="0.03" stroke-width="3.40695"/>
<path d="M878.67 28.3101L905.013 74.2101H957.7L984.043 28.3101L957.7 -17.5895H905.013L878.67 28.3101Z" stroke="#DD5954" stroke-opacity="0.03" stroke-width="3.40695"/>
<path d="M957.7 74.2091L984.043 120.109H1036.73L1063.07 74.2091L1036.73 28.3094H984.043L957.7 74.2091Z" stroke="#DD5954" stroke-opacity="0.03" stroke-width="3.40695"/>
<path d="M1036.73 28.3101L1063.07 74.2101H1115.76L1142.1 28.3101L1115.76 -17.5895H1063.07L1036.73 28.3101Z" stroke="#DD5954" stroke-opacity="0.03" stroke-width="3.40695"/>
<path d="M1115.76 74.2091L1142.1 120.109H1194.79L1221.13 74.2091L1194.79 28.3094H1142.1L1115.76 74.2091Z" stroke="#DD5954" stroke-opacity="0.03" stroke-width="3.40695"/>
<path d="M1194.79 28.3101L1221.14 74.2101H1273.82L1300.17 28.3101L1273.82 -17.5895H1221.14L1194.79 28.3101Z" stroke="#DD5954" stroke-opacity="0.03" stroke-width="3.40695"/>
<path d="M1273.82 74.2091L1300.17 120.109H1352.85L1379.2 74.2091L1352.85 28.3094H1300.17L1273.82 74.2091Z" stroke="#DD5954" stroke-opacity="0.03" stroke-width="3.40695"/>
<path d="M-69.6982 120.108L-43.355 166.008H9.33162L35.6748 120.108L9.33162 74.2084H-43.355L-69.6982 120.108Z" stroke="#DD5954" stroke-opacity="0.03" stroke-width="3.40695"/>
<path d="M9.33203 166.007L35.6754 211.907H88.362L114.705 166.007L88.362 120.108H35.6754L9.33203 166.007Z" stroke="#DD5954" stroke-opacity="0.03" stroke-width="3.40695"/>
<path d="M88.3643 120.108L114.708 166.008H167.394L193.738 120.108L167.394 74.2084H114.708L88.3643 120.108Z" stroke="#DD5954" stroke-opacity="0.03" stroke-width="3.40695"/>
<path d="M167.393 166.007L193.736 211.907H246.422L272.766 166.007L246.422 120.108H193.736L167.393 166.007Z" stroke="#DD5954" stroke-opacity="0.03" stroke-width="3.40695"/>
<path d="M246.426 120.108L272.769 166.008H325.456L351.799 120.108L325.456 74.2084H272.769L246.426 120.108Z" stroke="#DD5954" stroke-opacity="0.03" stroke-width="3.40695"/>
<path d="M325.455 166.007L351.798 211.907H404.485L430.828 166.007L404.485 120.108H351.798L325.455 166.007Z" stroke="#DD5954" stroke-opacity="0.03" stroke-width="3.40695"/>
<path d="M404.486 120.108L430.83 166.008H483.516L509.859 120.108L483.516 74.2084H430.83L404.486 120.108Z" stroke="#DD5954" stroke-opacity="0.03" stroke-width="3.40695"/>
<path d="M483.515 166.007L509.858 211.907H562.545L588.888 166.007L562.545 120.108H509.858L483.515 166.007Z" stroke="#DD5954" stroke-opacity="0.03" stroke-width="3.40695"/>
<path d="M562.548 120.108L588.891 166.008H641.578L667.921 120.108L641.578 74.2084H588.891L562.548 120.108Z" stroke="#DD5954" stroke-opacity="0.03" stroke-width="3.40695"/>
<path d="M641.576 166.007L667.919 211.907H720.606L746.949 166.007L720.606 120.108H667.919L641.576 166.007Z" stroke="#DD5954" stroke-opacity="0.03" stroke-width="3.40695"/>
<path d="M720.609 120.108L746.953 166.008H799.639L825.983 120.108L799.639 74.2084H746.953L720.609 120.108Z" stroke="#DD5954" stroke-opacity="0.03" stroke-width="3.40695"/>
<path d="M799.639 166.007L825.982 211.907H878.669L905.012 166.007L878.669 120.108H825.982L799.639 166.007Z" stroke="#DD5954" stroke-opacity="0.03" stroke-width="3.40695"/>
<path d="M878.67 120.108L905.013 166.008H957.7L984.043 120.108L957.7 74.2084H905.013L878.67 120.108Z" stroke="#DD5954" stroke-opacity="0.03" stroke-width="3.40695"/>
<path d="M957.7 166.007L984.043 211.907H1036.73L1063.07 166.007L1036.73 120.108H984.043L957.7 166.007Z" stroke="#DD5954" stroke-opacity="0.03" stroke-width="3.40695"/>
<path d="M1036.73 120.108L1063.07 166.008H1115.76L1142.1 120.108L1115.76 74.2084H1063.07L1036.73 120.108Z" stroke="#DD5954" stroke-opacity="0.03" stroke-width="3.40695"/>
<path d="M1115.76 166.007L1142.1 211.907H1194.79L1221.13 166.007L1194.79 120.108H1142.1L1115.76 166.007Z" stroke="#DD5954" stroke-opacity="0.03" stroke-width="3.40695"/>
<path d="M1194.79 120.108L1221.14 166.008H1273.82L1300.17 120.108L1273.82 74.2084H1221.14L1194.79 120.108Z" stroke="#DD5954" stroke-opacity="0.03" stroke-width="3.40695"/>
<path d="M1273.82 166.007L1300.17 211.907H1352.85L1379.2 166.007L1352.85 120.108H1300.17L1273.82 166.007Z" stroke="#DD5954" stroke-opacity="0.03" stroke-width="3.40695"/>
<path d="M-69.6982 211.906L-43.355 257.806H9.33162L35.6748 211.906L9.33162 166.007H-43.355L-69.6982 211.906Z" stroke="#DD5954" stroke-opacity="0.03" stroke-width="3.40695"/>
<path d="M9.33203 257.805L35.6754 303.705H88.362L114.705 257.805L88.362 211.906H35.6754L9.33203 257.805Z" stroke="#DD5954" stroke-opacity="0.03" stroke-width="3.40695"/>
<path d="M88.3643 211.906L114.708 257.806H167.394L193.738 211.906L167.394 166.007H114.708L88.3643 211.906Z" stroke="#DD5954" stroke-opacity="0.03" stroke-width="3.40695"/>
<path d="M167.393 257.805L193.736 303.705H246.422L272.766 257.805L246.422 211.906H193.736L167.393 257.805Z" stroke="#DD5954" stroke-opacity="0.03" stroke-width="3.40695"/>
<path d="M246.426 211.906L272.769 257.806H325.456L351.799 211.906L325.456 166.007H272.769L246.426 211.906Z" stroke="#DD5954" stroke-opacity="0.03" stroke-width="3.40695"/>
<path d="M325.455 257.805L351.798 303.705H404.485L430.828 257.805L404.485 211.906H351.798L325.455 257.805Z" stroke="#DD5954" stroke-opacity="0.03" stroke-width="3.40695"/>
<path d="M404.486 211.906L430.83 257.806H483.516L509.859 211.906L483.516 166.007H430.83L404.486 211.906Z" stroke="#DD5954" stroke-opacity="0.03" stroke-width="3.40695"/>
<path d="M483.515 257.805L509.858 303.705H562.545L588.888 257.805L562.545 211.906H509.858L483.515 257.805Z" stroke="#DD5954" stroke-opacity="0.03" stroke-width="3.40695"/>
<path d="M562.548 211.906L588.891 257.806H641.578L667.921 211.906L641.578 166.007H588.891L562.548 211.906Z" stroke="#DD5954" stroke-opacity="0.03" stroke-width="3.40695"/>
<path d="M641.576 257.805L667.919 303.705H720.606L746.949 257.805L720.606 211.906H667.919L641.576 257.805Z" stroke="#DD5954" stroke-opacity="0.03" stroke-width="3.40695"/>
<path d="M720.609 211.906L746.953 257.806H799.639L825.983 211.906L799.639 166.007H746.953L720.609 211.906Z" stroke="#DD5954" stroke-opacity="0.03" stroke-width="3.40695"/>
<path d="M799.639 257.805L825.982 303.705H878.669L905.012 257.805L878.669 211.906H825.982L799.639 257.805Z" stroke="#DD5954" stroke-opacity="0.03" stroke-width="3.40695"/>
<path d="M878.67 211.906L905.013 257.806H957.7L984.043 211.906L957.7 166.007H905.013L878.67 211.906Z" stroke="#DD5954" stroke-opacity="0.03" stroke-width="3.40695"/>
<path d="M957.7 257.805L984.043 303.705H1036.73L1063.07 257.805L1036.73 211.906H984.043L957.7 257.805Z" stroke="#DD5954" stroke-opacity="0.03" stroke-width="3.40695"/>
<path d="M1036.73 211.906L1063.07 257.806H1115.76L1142.1 211.906L1115.76 166.007H1063.07L1036.73 211.906Z" stroke="#DD5954" stroke-opacity="0.03" stroke-width="3.40695"/>
<path d="M1115.76 257.805L1142.1 303.705H1194.79L1221.13 257.805L1194.79 211.906H1142.1L1115.76 257.805Z" stroke="#DD5954" stroke-opacity="0.03" stroke-width="3.40695"/>
<path d="M1194.79 211.906L1221.14 257.806H1273.82L1300.17 211.906L1273.82 166.007H1221.14L1194.79 211.906Z" stroke="#DD5954" stroke-opacity="0.03" stroke-width="3.40695"/>
<path d="M1273.82 257.805L1300.17 303.705H1352.85L1379.2 257.805L1352.85 211.906H1300.17L1273.82 257.805Z" stroke="#DD5954" stroke-opacity="0.03" stroke-width="3.40695"/>
<path d="M-69.6982 303.704L-43.355 349.604H9.33162L35.6748 303.704L9.33162 257.805H-43.355L-69.6982 303.704Z" stroke="#DD5954" stroke-opacity="0.03" stroke-width="3.40695"/>
<path d="M9.33203 349.603L35.6754 395.503H88.362L114.705 349.603L88.362 303.704H35.6754L9.33203 349.603Z" stroke="#DD5954" stroke-opacity="0.03" stroke-width="3.40695"/>
<path d="M88.3643 303.704L114.708 349.604H167.394L193.738 303.704L167.394 257.805H114.708L88.3643 303.704Z" stroke="#DD5954" stroke-opacity="0.03" stroke-width="3.40695"/>
<path d="M167.393 349.603L193.736 395.503H246.422L272.766 349.603L246.422 303.704H193.736L167.393 349.603Z" stroke="#DD5954" stroke-opacity="0.03" stroke-width="3.40695"/>
<path d="M246.426 303.704L272.769 349.604H325.456L351.799 303.704L325.456 257.805H272.769L246.426 303.704Z" stroke="#DD5954" stroke-opacity="0.03" stroke-width="3.40695"/>
<path d="M325.455 349.603L351.798 395.503H404.485L430.828 349.603L404.485 303.704H351.798L325.455 349.603Z" stroke="#DD5954" stroke-opacity="0.03" stroke-width="3.40695"/>
<path d="M404.486 303.704L430.83 349.604H483.516L509.859 303.704L483.516 257.805H430.83L404.486 303.704Z" stroke="#DD5954" stroke-opacity="0.03" stroke-width="3.40695"/>
<path d="M483.515 349.603L509.858 395.503H562.545L588.888 349.603L562.545 303.704H509.858L483.515 349.603Z" stroke="#DD5954" stroke-opacity="0.03" stroke-width="3.40695"/>
<path d="M562.548 303.704L588.891 349.604H641.578L667.921 303.704L641.578 257.805H588.891L562.548 303.704Z" stroke="#DD5954" stroke-opacity="0.03" stroke-width="3.40695"/>
<path d="M641.576 349.603L667.919 395.503H720.606L746.949 349.603L720.606 303.704H667.919L641.576 349.603Z" stroke="#DD5954" stroke-opacity="0.03" stroke-width="3.40695"/>
<path d="M720.609 303.704L746.953 349.604H799.639L825.983 303.704L799.639 257.805H746.953L720.609 303.704Z" stroke="#DD5954" stroke-opacity="0.03" stroke-width="3.40695"/>
<path d="M799.639 349.603L825.982 395.503H878.669L905.012 349.603L878.669 303.704H825.982L799.639 349.603Z" stroke="#DD5954" stroke-opacity="0.03" stroke-width="3.40695"/>
<path d="M878.67 303.704L905.013 349.604H957.7L984.043 303.704L957.7 257.805H905.013L878.67 303.704Z" stroke="#DD5954" stroke-opacity="0.03" stroke-width="3.40695"/>
<path d="M957.7 349.603L984.043 395.503H1036.73L1063.07 349.603L1036.73 303.704H984.043L957.7 349.603Z" stroke="#DD5954" stroke-opacity="0.03" stroke-width="3.40695"/>
<path d="M1036.73 303.704L1063.07 349.604H1115.76L1142.1 303.704L1115.76 257.805H1063.07L1036.73 303.704Z" stroke="#DD5954" stroke-opacity="0.03" stroke-width="3.40695"/>
<path d="M1115.76 349.603L1142.1 395.503H1194.79L1221.13 349.603L1194.79 303.704H1142.1L1115.76 349.603Z" stroke="#DD5954" stroke-opacity="0.03" stroke-width="3.40695"/>
<path d="M1194.79 303.704L1221.14 349.604H1273.82L1300.17 303.704L1273.82 257.805H1221.14L1194.79 303.704Z" stroke="#DD5954" stroke-opacity="0.03" stroke-width="3.40695"/>
<path d="M1273.82 349.603L1300.17 395.503H1352.85L1379.2 349.603L1352.85 303.704H1300.17L1273.82 349.603Z" stroke="#DD5954" stroke-opacity="0.03" stroke-width="3.40695"/>
<path d="M-69.6982 395.502L-43.355 441.402H9.33162L35.6748 395.502L9.33162 349.603H-43.355L-69.6982 395.502Z" stroke="#DD5954" stroke-opacity="0.03" stroke-width="3.40695"/>
<path d="M9.33203 441.401L35.6754 487.301H88.362L114.705 441.401L88.362 395.502H35.6754L9.33203 441.401Z" stroke="#DD5954" stroke-opacity="0.03" stroke-width="3.40695"/>
<path d="M88.3643 395.502L114.708 441.402H167.394L193.738 395.502L167.394 349.603H114.708L88.3643 395.502Z" stroke="#DD5954" stroke-opacity="0.03" stroke-width="3.40695"/>
<path d="M167.393 441.401L193.736 487.301H246.422L272.766 441.401L246.422 395.502H193.736L167.393 441.401Z" stroke="#DD5954" stroke-opacity="0.03" stroke-width="3.40695"/>
<path d="M246.426 395.502L272.769 441.402H325.456L351.799 395.502L325.456 349.603H272.769L246.426 395.502Z" stroke="#DD5954" stroke-opacity="0.03" stroke-width="3.40695"/>
<path d="M325.455 441.401L351.798 487.301H404.485L430.828 441.401L404.485 395.502H351.798L325.455 441.401Z" stroke="#DD5954" stroke-opacity="0.03" stroke-width="3.40695"/>
<path d="M404.486 395.502L430.83 441.402H483.516L509.859 395.502L483.516 349.603H430.83L404.486 395.502Z" stroke="#DD5954" stroke-opacity="0.03" stroke-width="3.40695"/>
<path d="M483.515 441.401L509.858 487.301H562.545L588.888 441.401L562.545 395.502H509.858L483.515 441.401Z" stroke="#DD5954" stroke-opacity="0.03" stroke-width="3.40695"/>
<path d="M562.548 395.502L588.891 441.402H641.578L667.921 395.502L641.578 349.603H588.891L562.548 395.502Z" stroke="#DD5954" stroke-opacity="0.03" stroke-width="3.40695"/>
<path d="M641.576 441.401L667.919 487.301H720.606L746.949 441.401L720.606 395.502H667.919L641.576 441.401Z" stroke="#DD5954" stroke-opacity="0.03" stroke-width="3.40695"/>
<path d="M720.609 395.502L746.953 441.402H799.639L825.983 395.502L799.639 349.603H746.953L720.609 395.502Z" stroke="#DD5954" stroke-opacity="0.03" stroke-width="3.40695"/>
<path d="M799.639 441.401L825.982 487.301H878.669L905.012 441.401L878.669 395.502H825.982L799.639 441.401Z" stroke="#DD5954" stroke-opacity="0.03" stroke-width="3.40695"/>
<path d="M878.67 395.502L905.013 441.402H957.7L984.043 395.502L957.7 349.603H905.013L878.67 395.502Z" stroke="#DD5954" stroke-opacity="0.03" stroke-width="3.40695"/>
<path d="M957.7 441.401L984.043 487.301H1036.73L1063.07 441.401L1036.73 395.502H984.043L957.7 441.401Z" stroke="#DD5954" stroke-opacity="0.03" stroke-width="3.40695"/>
<path d="M1036.73 395.502L1063.07 441.402H1115.76L1142.1 395.502L1115.76 349.603H1063.07L1036.73 395.502Z" stroke="#DD5954" stroke-opacity="0.03" stroke-width="3.40695"/>
<path d="M1115.76 441.401L1142.1 487.301H1194.79L1221.13 441.401L1194.79 395.502H1142.1L1115.76 441.401Z" stroke="#DD5954" stroke-opacity="0.03" stroke-width="3.40695"/>
<path d="M1194.79 395.502L1221.14 441.402H1273.82L1300.17 395.502L1273.82 349.603H1221.14L1194.79 395.502Z" stroke="#DD5954" stroke-opacity="0.03" stroke-width="3.40695"/>
<path d="M1273.82 441.401L1300.17 487.301H1352.85L1379.2 441.401L1352.85 395.502H1300.17L1273.82 441.401Z" stroke="#DD5954" stroke-opacity="0.03" stroke-width="3.40695"/>
<path d="M-69.6982 487.3L-43.355 533.2H9.33162L35.6748 487.3L9.33162 441.401H-43.355L-69.6982 487.3Z" stroke="#DD5954" stroke-opacity="0.03" stroke-width="3.40695"/>
<path d="M9.33203 533.199L35.6754 579.099H88.362L114.705 533.199L88.362 487.3H35.6754L9.33203 533.199Z" stroke="#DD5954" stroke-opacity="0.03" stroke-width="3.40695"/>
<path d="M88.3643 487.3L114.708 533.2H167.394L193.738 487.3L167.394 441.401H114.708L88.3643 487.3Z" stroke="#DD5954" stroke-opacity="0.03" stroke-width="3.40695"/>
<path d="M167.393 533.199L193.736 579.099H246.422L272.766 533.199L246.422 487.3H193.736L167.393 533.199Z" stroke="#DD5954" stroke-opacity="0.03" stroke-width="3.40695"/>
<path d="M246.426 487.3L272.769 533.2H325.456L351.799 487.3L325.456 441.401H272.769L246.426 487.3Z" stroke="#DD5954" stroke-opacity="0.03" stroke-width="3.40695"/>
<path d="M325.455 533.199L351.798 579.099H404.485L430.828 533.199L404.485 487.3H351.798L325.455 533.199Z" stroke="#DD5954" stroke-opacity="0.03" stroke-width="3.40695"/>
<path d="M404.486 487.3L430.83 533.2H483.516L509.859 487.3L483.516 441.401H430.83L404.486 487.3Z" stroke="#DD5954" stroke-opacity="0.03" stroke-width="3.40695"/>
<path d="M483.515 533.199L509.858 579.099H562.545L588.888 533.199L562.545 487.3H509.858L483.515 533.199Z" stroke="#DD5954" stroke-opacity="0.03" stroke-width="3.40695"/>
<path d="M562.548 487.3L588.891 533.2H641.578L667.921 487.3L641.578 441.401H588.891L562.548 487.3Z" stroke="#DD5954" stroke-opacity="0.03" stroke-width="3.40695"/>
<path d="M641.576 533.199L667.919 579.099H720.606L746.949 533.199L720.606 487.3H667.919L641.576 533.199Z" stroke="#DD5954" stroke-opacity="0.03" stroke-width="3.40695"/>
<path d="M720.609 487.3L746.953 533.2H799.639L825.983 487.3L799.639 441.401H746.953L720.609 487.3Z" stroke="#DD5954" stroke-opacity="0.03" stroke-width="3.40695"/>
<path d="M799.639 533.199L825.982 579.099H878.669L905.012 533.199L878.669 487.3H825.982L799.639 533.199Z" stroke="#DD5954" stroke-opacity="0.03" stroke-width="3.40695"/>
<path d="M878.67 487.3L905.013 533.2H957.7L984.043 487.3L957.7 441.401H905.013L878.67 487.3Z" stroke="#DD5954" stroke-opacity="0.03" stroke-width="3.40695"/>
<path d="M957.7 533.199L984.043 579.099H1036.73L1063.07 533.199L1036.73 487.3H984.043L957.7 533.199Z" stroke="#DD5954" stroke-opacity="0.03" stroke-width="3.40695"/>
<path d="M1036.73 487.3L1063.07 533.2H1115.76L1142.1 487.3L1115.76 441.401H1063.07L1036.73 487.3Z" stroke="#DD5954" stroke-opacity="0.03" stroke-width="3.40695"/>
<path d="M1115.76 533.199L1142.1 579.099H1194.79L1221.13 533.199L1194.79 487.3H1142.1L1115.76 533.199Z" stroke="#DD5954" stroke-opacity="0.03" stroke-width="3.40695"/>
<path d="M1194.79 487.3L1221.14 533.2H1273.82L1300.17 487.3L1273.82 441.401H1221.14L1194.79 487.3Z" stroke="#DD5954" stroke-opacity="0.03" stroke-width="3.40695"/>
<path d="M1273.82 533.199L1300.17 579.099H1352.85L1379.2 533.199L1352.85 487.3H1300.17L1273.82 533.199Z" stroke="#DD5954" stroke-opacity="0.03" stroke-width="3.40695"/>
<path d="M-69.6982 579.098L-43.355 624.998H9.33162L35.6748 579.098L9.33162 533.199H-43.355L-69.6982 579.098Z" stroke="#DD5954" stroke-opacity="0.03" stroke-width="3.40695"/>
<path d="M9.33203 624.997L35.6754 670.897H88.362L114.705 624.997L88.362 579.098H35.6754L9.33203 624.997Z" stroke="#DD5954" stroke-opacity="0.03" stroke-width="3.40695"/>
<path d="M88.3643 579.098L114.708 624.998H167.394L193.738 579.098L167.394 533.199H114.708L88.3643 579.098Z" stroke="#DD5954" stroke-opacity="0.03" stroke-width="3.40695"/>
<path d="M167.393 624.997L193.736 670.897H246.422L272.766 624.997L246.422 579.098H193.736L167.393 624.997Z" stroke="#DD5954" stroke-opacity="0.03" stroke-width="3.40695"/>
<path d="M246.426 579.098L272.769 624.998H325.456L351.799 579.098L325.456 533.199H272.769L246.426 579.098Z" stroke="#DD5954" stroke-opacity="0.03" stroke-width="3.40695"/>
<path d="M325.455 624.997L351.798 670.897H404.485L430.828 624.997L404.485 579.098H351.798L325.455 624.997Z" stroke="#DD5954" stroke-opacity="0.03" stroke-width="3.40695"/>
<path d="M404.486 579.098L430.83 624.998H483.516L509.859 579.098L483.516 533.199H430.83L404.486 579.098Z" stroke="#DD5954" stroke-opacity="0.03" stroke-width="3.40695"/>
<path d="M483.515 624.997L509.858 670.897H562.545L588.888 624.997L562.545 579.098H509.858L483.515 624.997Z" stroke="#DD5954" stroke-opacity="0.03" stroke-width="3.40695"/>
<path d="M562.548 579.098L588.891 624.998H641.578L667.921 579.098L641.578 533.199H588.891L562.548 579.098Z" stroke="#DD5954" stroke-opacity="0.03" stroke-width="3.40695"/>
<path d="M641.576 624.997L667.919 670.897H720.606L746.949 624.997L720.606 579.098H667.919L641.576 624.997Z" stroke="#DD5954" stroke-opacity="0.03" stroke-width="3.40695"/>
<path d="M720.609 579.098L746.953 624.998H799.639L825.983 579.098L799.639 533.199H746.953L720.609 579.098Z" stroke="#DD5954" stroke-opacity="0.03" stroke-width="3.40695"/>
<path d="M799.639 624.997L825.982 670.897H878.669L905.012 624.997L878.669 579.098H825.982L799.639 624.997Z" stroke="#DD5954" stroke-opacity="0.03" stroke-width="3.40695"/>
<path d="M878.67 579.098L905.013 624.998H957.7L984.043 579.098L957.7 533.199H905.013L878.67 579.098Z" stroke="#DD5954" stroke-opacity="0.03" stroke-width="3.40695"/>
<path d="M957.7 624.997L984.043 670.897H1036.73L1063.07 624.997L1036.73 579.098H984.043L957.7 624.997Z" stroke="#DD5954" stroke-opacity="0.03" stroke-width="3.40695"/>
<path d="M1036.73 579.098L1063.07 624.998H1115.76L1142.1 579.098L1115.76 533.199H1063.07L1036.73 579.098Z" stroke="#DD5954" stroke-opacity="0.03" stroke-width="3.40695"/>
<path d="M1115.76 624.997L1142.1 670.897H1194.79L1221.13 624.997L1194.79 579.098H1142.1L1115.76 624.997Z" stroke="#DD5954" stroke-opacity="0.03" stroke-width="3.40695"/>
<path d="M1194.79 579.098L1221.14 624.998H1273.82L1300.17 579.098L1273.82 533.199H1221.14L1194.79 579.098Z" stroke="#DD5954" stroke-opacity="0.03" stroke-width="3.40695"/>
<path d="M1273.82 624.997L1300.17 670.897H1352.85L1379.2 624.997L1352.85 579.098H1300.17L1273.82 624.997Z" stroke="#DD5954" stroke-opacity="0.03" stroke-width="3.40695"/>
<path d="M-69.6982 670.896L-43.355 716.796H9.33162L35.6748 670.896L9.33162 624.997H-43.355L-69.6982 670.896Z" stroke="#DD5954" stroke-opacity="0.03" stroke-width="3.40695"/>
<path d="M9.33203 716.795L35.6754 762.695H88.362L114.705 716.795L88.362 670.896H35.6754L9.33203 716.795Z" stroke="#DD5954" stroke-opacity="0.03" stroke-width="3.40695"/>
<path d="M88.3643 670.896L114.708 716.796H167.394L193.738 670.896L167.394 624.997H114.708L88.3643 670.896Z" stroke="#DD5954" stroke-opacity="0.03" stroke-width="3.40695"/>
<path d="M167.393 716.795L193.736 762.695H246.422L272.766 716.795L246.422 670.896H193.736L167.393 716.795Z" stroke="#DD5954" stroke-opacity="0.03" stroke-width="3.40695"/>
<path d="M246.426 670.896L272.769 716.796H325.456L351.799 670.896L325.456 624.997H272.769L246.426 670.896Z" stroke="#DD5954" stroke-opacity="0.03" stroke-width="3.40695"/>
<path d="M325.455 716.795L351.798 762.695H404.485L430.828 716.795L404.485 670.896H351.798L325.455 716.795Z" stroke="#DD5954" stroke-opacity="0.03" stroke-width="3.40695"/>
<path d="M404.486 670.896L430.83 716.796H483.516L509.859 670.896L483.516 624.997H430.83L404.486 670.896Z" stroke="#DD5954" stroke-opacity="0.03" stroke-width="3.40695"/>
<path d="M483.515 716.795L509.858 762.695H562.545L588.888 716.795L562.545 670.896H509.858L483.515 716.795Z" stroke="#DD5954" stroke-opacity="0.03" stroke-width="3.40695"/>
<path d="M562.548 670.896L588.891 716.796H641.578L667.921 670.896L641.578 624.997H588.891L562.548 670.896Z" stroke="#DD5954" stroke-opacity="0.03" stroke-width="3.40695"/>
<path d="M641.576 716.795L667.919 762.695H720.606L746.949 716.795L720.606 670.896H667.919L641.576 716.795Z" stroke="#DD5954" stroke-opacity="0.03" stroke-width="3.40695"/>
<path d="M720.609 670.896L746.953 716.796H799.639L825.983 670.896L799.639 624.997H746.953L720.609 670.896Z" stroke="#DD5954" stroke-opacity="0.03" stroke-width="3.40695"/>
<path d="M799.639 716.795L825.982 762.695H878.669L905.012 716.795L878.669 670.896H825.982L799.639 716.795Z" stroke="#DD5954" stroke-opacity="0.03" stroke-width="3.40695"/>
<path d="M878.67 670.896L905.013 716.796H957.7L984.043 670.896L957.7 624.997H905.013L878.67 670.896Z" stroke="#DD5954" stroke-opacity="0.03" stroke-width="3.40695"/>
<path d="M957.7 716.795L984.043 762.695H1036.73L1063.07 716.795L1036.73 670.896H984.043L957.7 716.795Z" stroke="#DD5954" stroke-opacity="0.03" stroke-width="3.40695"/>
<path d="M1036.73 670.896L1063.07 716.796H1115.76L1142.1 670.896L1115.76 624.997H1063.07L1036.73 670.896Z" stroke="#DD5954" stroke-opacity="0.03" stroke-width="3.40695"/>
<path d="M1115.76 716.795L1142.1 762.695H1194.79L1221.13 716.795L1194.79 670.896H1142.1L1115.76 716.795Z" stroke="#DD5954" stroke-opacity="0.03" stroke-width="3.40695"/>
<path d="M1194.79 670.896L1221.14 716.796H1273.82L1300.17 670.896L1273.82 624.997H1221.14L1194.79 670.896Z" stroke="#DD5954" stroke-opacity="0.03" stroke-width="3.40695"/>
<path d="M1273.82 716.795L1300.17 762.695H1352.85L1379.2 716.795L1352.85 670.896H1300.17L1273.82 716.795Z" stroke="#DD5954" stroke-opacity="0.03" stroke-width="3.40695"/>
<path d="M-69.6982 762.694L-43.355 808.594H9.33162L35.6748 762.694L9.33162 716.795H-43.355L-69.6982 762.694Z" stroke="#DD5954" stroke-opacity="0.03" stroke-width="3.40695"/>
<path d="M9.33203 808.593L35.6754 854.493H88.362L114.705 808.593L88.362 762.694H35.6754L9.33203 808.593Z" stroke="#DD5954" stroke-opacity="0.03" stroke-width="3.40695"/>
<path d="M88.3643 762.694L114.708 808.594H167.394L193.738 762.694L167.394 716.795H114.708L88.3643 762.694Z" stroke="#DD5954" stroke-opacity="0.03" stroke-width="3.40695"/>
<path d="M167.393 808.593L193.736 854.493H246.422L272.766 808.593L246.422 762.694H193.736L167.393 808.593Z" stroke="#DD5954" stroke-opacity="0.03" stroke-width="3.40695"/>
<path d="M246.426 762.694L272.769 808.594H325.456L351.799 762.694L325.456 716.795H272.769L246.426 762.694Z" stroke="#DD5954" stroke-opacity="0.03" stroke-width="3.40695"/>
<path d="M325.455 808.593L351.798 854.493H404.485L430.828 808.593L404.485 762.694H351.798L325.455 808.593Z" stroke="#DD5954" stroke-opacity="0.03" stroke-width="3.40695"/>
<path d="M404.486 762.694L430.83 808.594H483.516L509.859 762.694L483.516 716.795H430.83L404.486 762.694Z" stroke="#DD5954" stroke-opacity="0.03" stroke-width="3.40695"/>
<path d="M483.515 808.593L509.858 854.493H562.545L588.888 808.593L562.545 762.694H509.858L483.515 808.593Z" stroke="#DD5954" stroke-opacity="0.03" stroke-width="3.40695"/>
<path d="M562.548 762.694L588.891 808.594H641.578L667.921 762.694L641.578 716.795H588.891L562.548 762.694Z" stroke="#DD5954" stroke-opacity="0.03" stroke-width="3.40695"/>
<path d="M641.576 808.593L667.919 854.493H720.606L746.949 808.593L720.606 762.694H667.919L641.576 808.593Z" stroke="#DD5954" stroke-opacity="0.03" stroke-width="3.40695"/>
<path d="M720.609 762.694L746.953 808.594H799.639L825.983 762.694L799.639 716.795H746.953L720.609 762.694Z" stroke="#DD5954" stroke-opacity="0.03" stroke-width="3.40695"/>
<path d="M799.639 808.593L825.982 854.493H878.669L905.012 808.593L878.669 762.694H825.982L799.639 808.593Z" stroke="#DD5954" stroke-opacity="0.03" stroke-width="3.40695"/>
<path d="M878.67 762.694L905.013 808.594H957.7L984.043 762.694L957.7 716.795H905.013L878.67 762.694Z" stroke="#DD5954" stroke-opacity="0.03" stroke-width="3.40695"/>
<path d="M957.7 808.593L984.043 854.493H1036.73L1063.07 808.593L1036.73 762.694H984.043L957.7 808.593Z" stroke="#DD5954" stroke-opacity="0.03" stroke-width="3.40695"/>
<path d="M1036.73 762.694L1063.07 808.594H1115.76L1142.1 762.694L1115.76 716.795H1063.07L1036.73 762.694Z" stroke="#DD5954" stroke-opacity="0.03" stroke-width="3.40695"/>
<path d="M1115.76 808.593L1142.1 854.493H1194.79L1221.13 808.593L1194.79 762.694H1142.1L1115.76 808.593Z" stroke="#DD5954" stroke-opacity="0.03" stroke-width="3.40695"/>
<path d="M1194.79 762.694L1221.14 808.594H1273.82L1300.17 762.694L1273.82 716.795H1221.14L1194.79 762.694Z" stroke="#DD5954" stroke-opacity="0.03" stroke-width="3.40695"/>
<path d="M1273.82 808.593L1300.17 854.493H1352.85L1379.2 808.593L1352.85 762.694H1300.17L1273.82 808.593Z" stroke="#DD5954" stroke-opacity="0.03" stroke-width="3.40695"/>
<path d="M-69.6982 854.492L-43.355 900.393H9.33162L35.6748 854.492L9.33162 808.593H-43.355L-69.6982 854.492Z" stroke="#DD5954" stroke-opacity="0.03" stroke-width="3.40695"/>
<path d="M9.33203 900.391L35.6754 946.291H88.362L114.705 900.391L88.362 854.492H35.6754L9.33203 900.391Z" stroke="#DD5954" stroke-opacity="0.03" stroke-width="3.40695"/>
<path d="M88.3643 854.492L114.708 900.393H167.394L193.738 854.492L167.394 808.593H114.708L88.3643 854.492Z" stroke="#DD5954" stroke-opacity="0.03" stroke-width="3.40695"/>
<path d="M167.393 900.391L193.736 946.291H246.422L272.766 900.391L246.422 854.492H193.736L167.393 900.391Z" stroke="#DD5954" stroke-opacity="0.03" stroke-width="3.40695"/>
<path d="M246.426 854.492L272.769 900.393H325.456L351.799 854.492L325.456 808.593H272.769L246.426 854.492Z" stroke="#DD5954" stroke-opacity="0.03" stroke-width="3.40695"/>
<path d="M325.455 900.391L351.798 946.291H404.485L430.828 900.391L404.485 854.492H351.798L325.455 900.391Z" stroke="#DD5954" stroke-opacity="0.03" stroke-width="3.40695"/>
<path d="M404.486 854.492L430.83 900.393H483.516L509.859 854.492L483.516 808.593H430.83L404.486 854.492Z" stroke="#DD5954" stroke-opacity="0.03" stroke-width="3.40695"/>
<path d="M483.515 900.391L509.858 946.291H562.545L588.888 900.391L562.545 854.492H509.858L483.515 900.391Z" stroke="#DD5954" stroke-opacity="0.03" stroke-width="3.40695"/>
<path d="M562.548 854.492L588.891 900.393H641.578L667.921 854.492L641.578 808.593H588.891L562.548 854.492Z" stroke="#DD5954" stroke-opacity="0.03" stroke-width="3.40695"/>
<path d="M641.576 900.391L667.919 946.291H720.606L746.949 900.391L720.606 854.492H667.919L641.576 900.391Z" stroke="#DD5954" stroke-opacity="0.03" stroke-width="3.40695"/>
<path d="M720.609 854.492L746.953 900.393H799.639L825.983 854.492L799.639 808.593H746.953L720.609 854.492Z" stroke="#DD5954" stroke-opacity="0.03" stroke-width="3.40695"/>
<path d="M799.639 900.391L825.982 946.291H878.669L905.012 900.391L878.669 854.492H825.982L799.639 900.391Z" stroke="#DD5954" stroke-opacity="0.03" stroke-width="3.40695"/>
<path d="M878.67 854.492L905.013 900.393H957.7L984.043 854.492L957.7 808.593H905.013L878.67 854.492Z" stroke="#DD5954" stroke-opacity="0.03" stroke-width="3.40695"/>
<path d="M957.7 900.391L984.043 946.291H1036.73L1063.07 900.391L1036.73 854.492H984.043L957.7 900.391Z" stroke="#DD5954" stroke-opacity="0.03" stroke-width="3.40695"/>
<path d="M1036.73 854.492L1063.07 900.393H1115.76L1142.1 854.492L1115.76 808.593H1063.07L1036.73 854.492Z" stroke="#DD5954" stroke-opacity="0.03" stroke-width="3.40695"/>
<path d="M1115.76 900.391L1142.1 946.291H1194.79L1221.13 900.391L1194.79 854.492H1142.1L1115.76 900.391Z" stroke="#DD5954" stroke-opacity="0.03" stroke-width="3.40695"/>
<path d="M1194.79 854.492L1221.14 900.393H1273.82L1300.17 854.492L1273.82 808.593H1221.14L1194.79 854.492Z" stroke="#DD5954" stroke-opacity="0.03" stroke-width="3.40695"/>
<path d="M1273.82 900.391L1300.17 946.291H1352.85L1379.2 900.391L1352.85 854.492H1300.17L1273.82 900.391Z" stroke="#DD5954" stroke-opacity="0.03" stroke-width="3.40695"/>
</svg>
