<svg width="171" height="25" viewBox="0 0 171 25" fill="none" xmlns="http://www.w3.org/2000/svg">
<g clip-path="url(#clip0_33_23)">
<path d="M154.128 0.170471V10.1705C153.957 10.5682 148.998 21.7046 139.821 23.75L154.128 0.170471Z" fill="black"/>
<path d="M170.145 23.75C160.968 21.6477 156.066 10.5682 155.838 10.0568V0.170471L170.145 23.75Z" fill="black"/>
<path d="M150.252 20.2841H159.714L167.181 24.8295L154.983 24.7727L142.842 24.8295L150.252 20.2841Z" fill="black"/>
<path d="M151.449 18.8068C151.335 18.8068 151.221 18.75 151.164 18.6364C151.107 18.5227 151.107 18.3523 151.164 18.2386L155.04 12.8409C155.097 12.7273 155.211 12.6705 155.325 12.6705C155.439 12.6705 155.553 12.7273 155.61 12.8409L158.859 18.2386C158.916 18.3523 158.916 18.4659 158.859 18.5796C158.802 18.6932 158.688 18.75 158.574 18.75L151.449 18.8068Z" fill="black"/>
<path d="M65.3223 22.0454H60.8193L53.8084 14.2045H62.3014C62.8714 14.2045 63.2134 13.6932 63.2134 12.7841C63.2134 11.875 62.9284 11.3068 62.3014 11.3068H52.0414V22.1023H48.7354V8.01134H62.4153C63.6123 7.95452 64.6954 8.52271 65.4364 9.48861C66.1204 10.4545 66.4623 11.5909 66.4623 12.7272C66.5193 13.9204 66.1204 15.0568 65.4364 15.9659C64.7524 16.9318 63.6123 17.5 62.4153 17.4432H61.1614L65.3223 22.0454Z" fill="black"/>
<path d="M83.5054 11.3069H71.7064V13.4091H82.7074V16.7046H71.7064V18.8069H83.4484V22.1023H68.4004V8.01141H83.4484L83.5054 11.3069Z" fill="black"/>
<path d="M101.745 8.01141L94.5629 22.1023H91.7699L84.5879 8.01141H88.2929L93.2519 17.6705L98.1539 8.01141H101.745Z" fill="black"/>
<path d="M120.783 17.6137C120.783 18.8069 120.327 20 119.415 20.7955C118.56 21.6478 117.363 22.1023 116.166 22.0455H107.901C106.704 22.0455 105.507 21.591 104.652 20.7955C103.797 20 103.284 18.8069 103.341 17.6137V12.4432C103.284 11.25 103.797 10.0569 104.709 9.26141C105.564 8.40913 106.761 7.95459 107.958 8.01141H116.223C117.42 8.01141 118.617 8.46595 119.472 9.26141C120.384 10.0569 120.84 11.25 120.84 12.4432V17.6137H120.783ZM117.477 17.6137V12.4432C117.477 11.6478 117.021 11.25 116.166 11.25H107.901C107.046 11.25 106.59 11.6478 106.59 12.4432V17.6137C106.59 18.4091 107.046 18.8069 107.901 18.8069H116.166C117.078 18.8069 117.477 18.4091 117.477 17.6137Z" fill="black"/>
<path d="M136.858 22.0455H122.722V8.01141H126.028V18.8069H136.858V22.0455Z" fill="black"/>
<path d="M16.8725 11.3069H10.5455V22.1023H7.23947V11.3069H0.855469V8.01141H16.8725V11.3069Z" fill="black"/>
<path d="M33.6867 11.3069H21.9447V13.4091H32.9457V16.7046H21.9447V18.8069H33.6867V22.1023H18.6387V8.01141H33.6867V11.3069Z" fill="black"/>
<path d="M41.4961 7.55682L35.4541 14.8864L42.1231 22.1023H46.9111L40.4131 14.5455L45.9421 7.55682H41.4961Z" fill="black"/>
</g>
<defs>
<clipPath id="clip0_33_23">
<rect width="171" height="25" fill="white"/>
</clipPath>
</defs>
</svg>
