<svg width="171" height="25" viewBox="0 0 171 25" fill="none" xmlns="http://www.w3.org/2000/svg">
<g clip-path="url(#clip0_58_55)">
<path d="M154.128 0.17041V10.1704C153.957 10.5681 148.998 21.7045 139.821 23.75L154.128 0.17041Z" fill="white"/>
<path d="M170.145 23.75C160.968 21.6477 156.066 10.5681 155.838 10.0568V0.17041L170.145 23.75Z" fill="white"/>
<path d="M150.252 20.2842H159.714L167.181 24.8296L154.983 24.7728L142.842 24.8296L150.252 20.2842Z" fill="white"/>
<path d="M151.449 18.8068C151.335 18.8068 151.221 18.75 151.164 18.6363C151.107 18.5227 151.107 18.3522 151.164 18.2386L155.04 12.8409C155.097 12.7272 155.211 12.6704 155.325 12.6704C155.439 12.6704 155.553 12.7272 155.61 12.8409L158.859 18.2386C158.916 18.3522 158.916 18.4659 158.859 18.5795C158.802 18.6931 158.688 18.75 158.574 18.75L151.449 18.8068Z" fill="white"/>
<path d="M65.3223 22.0453H60.8193L53.8084 14.2044H62.3014C62.8714 14.2044 63.2134 13.693 63.2134 12.7839C63.2134 11.8749 62.9284 11.3067 62.3014 11.3067H52.0414V22.1021H48.7354V8.01122H62.4153C63.6123 7.9544 64.6954 8.52258 65.4364 9.48849C66.1204 10.4544 66.4623 11.5908 66.4623 12.7271C66.5193 13.9203 66.1204 15.0567 65.4364 15.9658C64.7524 16.9317 63.6123 17.4999 62.4153 17.443H61.1614L65.3223 22.0453Z" fill="white"/>
<path d="M83.5054 11.3067H71.7064V13.409H82.7074V16.7044H71.7064V18.8067H83.4484V22.1021H68.4004V8.01123H83.4484L83.5054 11.3067Z" fill="white"/>
<path d="M101.745 8.01123L94.5629 22.1021H91.7699L84.5879 8.01123H88.2929L93.2519 17.6703L98.1539 8.01123H101.745Z" fill="white"/>
<path d="M120.783 17.6139C120.783 18.807 120.327 20.0002 119.415 20.7957C118.56 21.648 117.363 22.1025 116.166 22.0457H107.901C106.704 22.0457 105.507 21.5911 104.652 20.7957C103.797 20.0002 103.284 18.807 103.341 17.6139V12.4434C103.284 11.2502 103.797 10.057 104.709 9.26159C105.564 8.40932 106.761 7.95477 107.958 8.01159H116.223C117.42 8.01159 118.617 8.46614 119.472 9.26159C120.384 10.057 120.84 11.2502 120.84 12.4434V17.6139H120.783ZM117.477 17.6139V12.4434C117.477 11.648 117.021 11.2502 116.166 11.2502H107.901C107.046 11.2502 106.59 11.648 106.59 12.4434V17.6139C106.59 18.4093 107.046 18.807 107.901 18.807H116.166C117.078 18.807 117.477 18.4093 117.477 17.6139Z" fill="white"/>
<path d="M136.858 22.0453H122.722V8.01123H126.028V18.8067H136.858V22.0453Z" fill="white"/>
<path d="M16.8725 11.3067H10.5455V22.1021H7.23947V11.3067H0.855469V8.01123H16.8725V11.3067Z" fill="white"/>
<path d="M33.6867 11.3067H21.9447V13.409H32.9457V16.7044H21.9447V18.8067H33.6867V22.1021H18.6387V8.01123H33.6867V11.3067Z" fill="white"/>
<path d="M41.4961 7.55664L35.4541 14.8862L42.1231 22.1021H46.9111L40.4131 14.5453L45.9421 7.55664H41.4961Z" fill="white"/>
</g>
<defs>
<clipPath id="clip0_58_55">
<rect width="171" height="25" fill="white"/>
</clipPath>
</defs>
</svg>
